<svg width="33" height="32" viewBox="0 0 33 32" fill="none" xmlns="http://www.w3.org/2000/svg">
<g clip-path="url(#clip0_114_1600)">
<path fill-rule="evenodd" clip-rule="evenodd" d="M1.5 4C0.947715 4 0.5 4.44772 0.5 5C0.5 5.55228 0.947715 6 1.5 6H5.64795L6.46008 8.81155L10.1305 21.5184C10.3777 22.3742 11.1612 22.9634 12.052 22.9634H25.9648C26.8394 22.9634 27.6126 22.3951 27.8737 21.5604L31.4482 10.131C31.851 8.84306 30.8888 7.53404 29.5393 7.53404H8.17283L7.56939 5.44498C7.32218 4.58916 6.53876 4 5.64795 4H1.5ZM12.052 20.9634L8.75054 9.53404H29.5393L25.9648 20.9634H12.052ZM15.6407 26.5227C15.6407 27.3507 14.9427 28.022 14.0817 28.022C13.2206 28.022 12.5226 27.3507 12.5226 26.5227C12.5226 25.6946 13.2206 25.0234 14.0817 25.0234C14.9427 25.0234 15.6407 25.6946 15.6407 26.5227ZM25.1981 26.5227C25.1981 27.3507 24.5001 28.022 23.639 28.022C22.778 28.022 22.08 27.3507 22.08 26.5227C22.08 25.6946 22.778 25.0234 23.639 25.0234C24.5001 25.0234 25.1981 25.6946 25.1981 26.5227Z" fill="black"/>
</g>
<defs>
<clipPath id="clip0_114_1600">
<rect width="32" height="32" fill="white" transform="translate(0.5)"/>
</clipPath>
</defs>
</svg>
