<svg width="40" height="40" viewBox="0 0 40 40" fill="none" xmlns="http://www.w3.org/2000/svg">
<path d="M29.1877 39.9998C35.1594 39.9998 40.0004 35.1588 40.0004 29.1871C40.0004 23.2154 35.1594 18.3743 29.1877 18.3743C23.216 18.3743 18.375 23.2154 18.375 29.1871C18.375 35.1588 23.216 39.9998 29.1877 39.9998Z" fill="#97CF26"/>
<path d="M8.88095 34.2046C11.6521 34.2046 13.8986 31.9581 13.8986 29.1869C13.8986 26.4157 11.6521 24.1693 8.88095 24.1693C6.10977 24.1693 3.86328 26.4157 3.86328 29.1869C3.86328 31.9581 6.10977 34.2046 8.88095 34.2046Z" fill="#A169F7"/>
<path d="M29.1876 15.8303C33.0257 15.8303 36.137 12.719 36.137 8.88099C36.137 5.04297 33.0257 1.93164 29.1876 1.93164C25.3496 1.93164 22.2383 5.04297 22.2383 8.88099C22.2383 12.719 25.3496 15.8303 29.1876 15.8303Z" fill="#FF6163"/>
<path d="M8.88104 17.7621C13.7859 17.7621 17.7621 13.7859 17.7621 8.88103C17.7621 3.97617 13.7859 0 8.88104 0C3.97618 0 0 3.97617 0 8.88103C0 13.7859 3.97618 17.7621 8.88104 17.7621Z" fill="#00AAFF"/>
</svg>
