<svg width="32" height="32" viewBox="0 0 32 32" fill="none" xmlns="http://www.w3.org/2000/svg">
<g clip-path="url(#clip0_73_7005)">
<path fill-rule="evenodd" clip-rule="evenodd" d="M1 4C0.447715 4 0 4.44772 0 5C0 5.55228 0.447715 6 1 6H5.14795L5.96008 8.81155L9.63053 21.5184C9.87774 22.3742 10.6612 22.9634 11.552 22.9634H25.4648C26.3394 22.9634 27.1126 22.3951 27.3737 21.5604L30.9482 10.131C31.351 8.84306 30.3888 7.53404 29.0393 7.53404H7.67283L7.06939 5.44498C6.82218 4.58916 6.03876 4 5.14795 4H1ZM11.552 20.9634L8.25054 9.53404H29.0393L25.4648 20.9634H11.552ZM24.6981 26.5227C24.6981 27.3507 24.0001 28.022 23.139 28.022C22.278 28.022 21.58 27.3507 21.58 26.5227C21.58 25.6946 22.278 25.0234 23.139 25.0234C24.0001 25.0234 24.6981 25.6946 24.6981 26.5227ZM15.1416 26.5227C15.1416 27.3508 14.4436 28.022 13.5825 28.022C12.7215 28.022 12.0234 27.3508 12.0234 26.5227C12.0234 25.6947 12.7215 25.0234 13.5825 25.0234C14.4436 25.0234 15.1416 25.6947 15.1416 26.5227Z" fill="black"/>
</g>
<defs>
<clipPath id="clip0_73_7005">
<rect width="32" height="32" fill="white"/>
</clipPath>
</defs>
</svg>
