<svg width="32" height="32" viewBox="0 0 32 32" fill="none" xmlns="http://www.w3.org/2000/svg">
<path d="M22.2424 31.1354H9.75633C9.21303 31.1347 8.69218 30.9186 8.30801 30.5344C7.92385 30.1502 7.70772 29.6294 7.70703 29.0861V5.58293C7.7076 5.03956 7.92368 4.5186 8.30786 4.13434C8.69204 3.75008 9.21296 3.53389 9.75633 3.5332H22.2424C22.7857 3.53389 23.3065 3.75002 23.6907 4.13419C24.0749 4.51836 24.291 5.0392 24.2917 5.5825V29.0861C24.291 29.6294 24.0749 30.1502 23.6907 30.5344C23.3065 30.9186 22.7857 31.1347 22.2424 31.1354ZM9.75633 4.39807C9.44234 4.39853 9.14134 4.52346 8.91931 4.74549C8.69729 4.96751 8.57235 5.26851 8.5719 5.5825V29.0861C8.57235 29.4001 8.69729 29.7011 8.91931 29.9231C9.14134 30.1451 9.44234 30.27 9.75633 30.2705H22.2424C22.5564 30.27 22.8574 30.1451 23.0794 29.9231C23.3014 29.7011 23.4264 29.4001 23.4268 29.0861V5.58293C23.4264 5.26894 23.3014 4.96794 23.0794 4.74592C22.8574 4.52389 22.5564 4.39896 22.2424 4.3985L9.75633 4.39807Z" fill="white"/>
<path d="M19.5547 4.39821H12.4481C12.3334 4.39821 12.2234 4.35265 12.1423 4.27155C12.0612 4.19045 12.0156 4.08046 12.0156 3.96578V2.10632C12.016 1.77734 12.1468 1.46193 12.3794 1.22927C12.6119 0.996609 12.9273 0.865692 13.2563 0.865234H18.7482C19.0772 0.865578 19.3927 0.996444 19.6254 1.22912C19.858 1.46179 19.9889 1.77727 19.9892 2.10632V3.96578C19.9892 4.02275 19.978 4.07915 19.9561 4.13176C19.9343 4.18437 19.9022 4.23213 19.8618 4.27232C19.8214 4.3125 19.7735 4.34431 19.7208 4.36591C19.6681 4.38752 19.6116 4.39849 19.5547 4.39821ZM12.8801 3.53334H19.1222V2.10632C19.1221 2.00657 19.0824 1.91095 19.0119 1.84042C18.9414 1.76989 18.8457 1.73021 18.746 1.7301H13.2541C13.1544 1.73021 13.0587 1.76989 12.9882 1.84042C12.9177 1.91095 12.878 2.00657 12.8779 2.10632L12.8801 3.53334Z" fill="white"/>
<path d="M13.4525 24.6548C13.3809 24.6547 13.3105 24.6369 13.2475 24.6029C13.1845 24.5689 13.1309 24.5198 13.0915 24.4601C13.0522 24.4003 13.0283 24.3316 13.022 24.2603C13.0157 24.189 13.0272 24.1173 13.0555 24.0515L15.2925 18.8407H11.8386C11.7559 18.8407 11.675 18.817 11.6053 18.7723C11.5357 18.7277 11.4803 18.6641 11.4458 18.5889C11.4112 18.5138 11.399 18.4303 11.4104 18.3484C11.4219 18.2665 11.4566 18.1895 11.5104 18.1268L18.3433 10.1618C18.41 10.0806 18.5041 10.0265 18.6078 10.0095C18.7115 9.99263 18.8179 10.0141 18.907 10.0699C18.996 10.1257 19.0617 10.212 19.0918 10.3127C19.1218 10.4134 19.1142 10.5217 19.0702 10.6171L16.6585 16.1778H20.1612C20.2444 16.1778 20.3258 16.2018 20.3957 16.247C20.4656 16.2921 20.521 16.3565 20.5552 16.4323C20.5894 16.5081 20.6011 16.5922 20.5887 16.6744C20.5764 16.7567 20.5406 16.8336 20.4856 16.8961L13.7768 24.5069C13.7364 24.5532 13.6865 24.5903 13.6306 24.6158C13.5747 24.6413 13.514 24.6546 13.4525 24.6548ZM12.7796 17.9758H15.9489C16.0205 17.9758 16.091 17.9936 16.1541 18.0275C16.2171 18.0615 16.2708 18.1106 16.3102 18.1704C16.3496 18.2302 16.3735 18.2988 16.3798 18.3702C16.3861 18.4415 16.3746 18.5133 16.3463 18.5791L14.9193 21.9058L19.2051 17.0427H15.9999C15.9281 17.0427 15.8574 17.0248 15.7942 16.9907C15.731 16.9566 15.6773 16.9072 15.638 16.8472C15.5986 16.7871 15.5749 16.7182 15.5688 16.6466C15.5628 16.575 15.5747 16.5031 15.6034 16.4373L17.1381 12.8956L12.7796 17.9758Z" fill="white"/>
</svg>
