<svg width="40" height="40" viewBox="0 0 40 40" fill="none" xmlns="http://www.w3.org/2000/svg">
<path d="M40 4.96582C40 3.56582 38.861 2.42676 37.4609 2.42676H8.76773C8.44406 2.42676 8.1818 2.6891 8.1818 3.0127C8.1818 3.33629 8.44406 3.59863 8.76773 3.59863H37.4609C38.2148 3.59863 38.8281 4.21199 38.8281 4.96582V10.9204H1.17188V4.96582C1.17188 4.21199 1.78523 3.59863 2.53906 3.59863H14.424C14.7477 3.59863 15.0099 3.33629 15.0099 3.0127C15.0099 2.6891 14.7477 2.42676 14.424 2.42676H2.53906C1.13898 2.42676 0 3.56582 0 4.96582V34.1435C0 36.0347 1.53859 37.5732 3.42977 37.5732H27.8466C28.1702 37.5732 28.4325 37.3109 28.4325 36.9873C28.4325 36.6637 28.1702 36.4014 27.8466 36.4014H14.1144V29.0796H25.8852V36.4014H22.1903C21.8666 36.4014 21.6044 36.6637 21.6044 36.9873C21.6044 37.3109 21.8666 37.5732 22.1903 37.5732H36.5702C38.4613 37.5732 39.9999 36.0346 39.9999 34.1435L40 4.96582ZM1.17188 20.586H12.9425V27.9078H1.17188V20.586ZM1.17188 19.4141V12.0924H12.9425V19.4141H1.17188ZM14.1144 12.0924H25.8852V19.4141H14.1144V12.0924ZM27.0571 12.0924H38.8281V19.4141H27.0571V12.0924ZM38.8281 20.586V27.9078H27.0571V20.586H38.8281ZM12.9425 36.4014H3.42977C2.18477 36.4014 1.17188 35.3885 1.17188 34.1435V29.0796H12.9425V36.4014ZM14.1144 27.9078V20.586H25.8852V27.9078H14.1144ZM36.5702 36.4014H27.0571V29.0796H38.8281V34.1435C38.8281 35.3885 37.8152 36.4014 36.5702 36.4014Z" fill="black"/>
</svg>
