<svg width="32" height="32" viewBox="0 0 32 32" fill="none" xmlns="http://www.w3.org/2000/svg">
<path d="M29.7497 28.4995C24.999 31.0257 15.8232 31.0998 8.37211 23.209C8.29516 23.1308 8.24609 23.029 8.23266 22.9199L7.70312 18.5923C7.37597 19.0752 7.04101 19.7395 6.96996 20.5022C6.94703 20.9102 6.39956 21.1095 6.11962 20.8102C6.06823 20.7591 1.06991 15.6696 3.98949 8.85934C2.89834 6.81442 2.15398 4.66186 2.00268 2.46432C1.97176 1.81691 2.93837 1.73176 3.00024 2.3955C3.13714 4.38324 3.80633 6.35177 4.80206 8.23874C5.42654 8.08194 6.70355 7.81662 8.20336 7.81662C9.36596 7.81662 10.6609 7.97653 11.884 8.47091C12.0818 8.55099 12.207 8.74777 12.1958 8.96115C12.1846 9.17428 12.0391 9.35666 11.8337 9.41525C11.8181 9.41989 10.5911 9.78097 10.0776 10.6643C11.1403 10.2886 13.2716 9.92154 15.397 10.9269C15.397 10.927 20.9558 15.4333 20.9558 15.4333C21.3504 15.7355 21.0513 16.4108 20.5593 16.3151C20.5444 16.313 19.3972 16.1382 18.2466 16.9983C19.448 17.0217 21.2378 17.1843 22.3672 17.8735C23.653 18.6581 26.3928 21.6075 28.2758 24.541C29.0276 25.7123 29.6492 26.8853 29.9778 27.9133C30.0496 28.1381 29.9546 28.3823 29.7497 28.4995ZM27.5638 25.276C25.7302 24.4841 23.9944 24.7312 23.9768 24.7336C23.3208 24.817 23.1801 23.8583 23.824 23.7453C24.4688 23.6376 25.6881 23.6837 26.6532 23.9224C24.9522 21.546 22.8657 19.3492 21.8462 18.727C20.3315 17.8022 17.0962 18.0166 17.0627 18.0193C16.6512 18.0638 16.3658 17.5412 16.6294 17.2185C17.5041 16.0642 18.5305 15.592 19.3372 15.4084L14.8254 11.7509C11.9285 10.5971 9.70898 11.8989 9.61645 11.9546C9.30526 12.1611 8.85151 11.9111 8.85596 11.5388C8.8291 10.3027 9.59765 9.50827 10.3227 9.03537C8.33459 8.60092 6.29958 8.9295 5.31024 9.14914C9.85284 16.8505 19.4463 22.9733 19.5698 23.0512C19.8035 23.1985 19.8733 23.5073 19.7261 23.7407C19.5791 23.9743 19.2708 24.0439 19.0366 23.8969C18.529 23.577 9.29248 17.6771 4.62744 9.97876C3.07113 14.4322 5.09359 17.9118 6.19995 19.3664C6.67358 17.9734 7.67578 17.0676 7.72778 17.0212C8.01308 16.7527 8.52033 16.944 8.55663 17.334C8.55663 17.334 9.20459 22.6294 9.20459 22.6294C11.1802 24.6213 13.1213 26.0366 14.9726 27.0283C14.3012 25.0195 14.5291 23.704 15.1618 23.7427C15.4973 23.7354 15.7496 24.0883 15.6372 24.405C15.6334 24.417 15.2695 25.5874 16.3562 27.6982C22.5555 30.3992 27.5102 28.4768 28.8855 27.8203C28.5845 27.0299 28.1175 26.1583 27.5638 25.276Z" fill="white"/>
</svg>
