<svg width="232" height="24" viewBox="0 0 232 24" fill="none" xmlns="http://www.w3.org/2000/svg">
<path d="M21.5822 15.2635H13.9609V12.034H25.2889V18.5609V20.8726C21.6861 22.9575 17.8061 24 13.6491 24C9.88463 24 6.82452 23.1162 4.46887 21.3484C1.48962 19.1048 0 15.9887 0 12C0 8.28332 1.31641 5.32578 3.94923 3.12748C6.46657 1.0425 9.81532 0 13.9955 0C15.335 0 16.5937 0.124646 17.7715 0.373939C18.9494 0.600567 20.2889 1.0085 21.7901 1.59773C22.5522 1.89235 23.2451 2.28895 23.8686 2.78754L22.4136 6.45893C21.0279 5.55241 19.5729 4.90652 18.0486 4.52125C16.5244 4.11332 15.1387 3.90936 13.8916 3.90936C11.3511 3.90936 9.24951 4.58924 7.58664 5.94901C5.6698 7.49006 4.71136 9.52973 4.71136 12.068C4.71136 14.5156 5.64671 16.4873 7.5174 17.983C9.20332 19.3654 11.4204 20.0567 14.1687 20.0567C15.4852 20.0567 16.79 19.9094 18.0833 19.6147C19.3766 19.3201 20.5429 18.9236 21.5822 18.4249V15.2635ZM48.3261 17.6771H37.2405L34.2267 23.5921H30.0003L40.9472 0.407933H45.0351L56.2592 23.5921H51.34L48.3261 17.6771ZM47.079 14.5156L42.8526 6.25497L38.557 14.5156H47.079ZM65.5434 14.1417V23.5921H60.9359V0.407933H74.3425C76.1211 0.407933 77.5294 0.509916 78.5688 0.713881C79.6082 0.917848 80.5085 1.26912 81.2712 1.7677C82.1254 2.35694 82.7725 3.16148 83.2109 4.18131C83.6033 5.15581 83.7998 6.19831 83.7998 7.30877C83.7998 11.0935 81.594 13.3032 77.1832 13.9377L83.9381 23.5921H78.915L72.2637 14.1417H65.5434ZM65.5434 10.3003H73.7884C74.9895 10.3003 75.8324 10.2663 76.3169 10.1983C76.8249 10.1303 77.3102 9.99438 77.7721 9.79039C78.7419 9.31447 79.2272 8.47596 79.2272 7.2748C79.2272 6.051 78.7419 5.21247 77.7721 4.75921C77.3336 4.53258 76.8597 4.38527 76.3517 4.31728C75.8664 4.2493 75.0122 4.2153 73.7884 4.2153H65.5434V10.3003ZM102.784 23.2861L93.8112 7.58078V23.5921H89.6196V0.407933H95.3706L103.234 14.3116L111.514 0.407933H116.883V23.5921H112.276V7.58078L102.784 23.2861ZM123.881 0.407933H128.488V23.5921H123.881V0.407933ZM139.678 7.71675V23.5921H135.486V0.407933H139.643L155.198 15.9434V0.407933H159.389V23.5921H155.648L139.678 7.71675ZM168.327 18.4249C169.043 18.4249 169.643 18.6969 170.129 19.2408C170.637 19.7847 170.891 20.4533 170.891 21.2465C170.891 21.9944 170.637 22.6402 170.129 23.1842C169.621 23.7281 169.02 24 168.327 24C167.612 24 166.999 23.7281 166.491 23.1842C166.006 22.6402 165.763 21.983 165.763 21.2125C165.763 20.442 166.006 19.796 166.491 19.2748C166.976 18.7309 167.588 18.4476 168.327 18.4249ZM199.194 16.3853L201.099 19.6487C200.637 20.102 199.921 20.6006 198.951 21.1445C196.988 22.2777 195.336 23.0369 193.997 23.4222C192.681 23.8074 191.099 24 189.251 24C185.579 24 182.577 23.1389 180.244 21.4165C178.859 20.3967 177.773 19.1388 176.988 17.6431C176.064 15.9434 175.602 14.0623 175.602 12C175.602 9.18985 176.422 6.74222 178.061 4.65723C180.533 1.55241 184.263 0 189.251 0C191.099 0 192.681 0.192635 193.997 0.577904C195.314 0.963171 196.965 1.72238 198.951 2.85552C199.898 3.37677 200.614 3.89802 201.099 4.41927L199.194 7.6827C198.177 6.70822 197.288 6.017 196.526 5.60907C194.447 4.47593 192.242 3.90936 189.91 3.90936C187.138 3.90936 184.921 4.57791 183.258 5.91502C181.295 7.45609 180.313 9.48441 180.313 12C180.313 14.4929 181.295 16.5213 183.258 18.085C184.921 19.3995 187.138 20.0567 189.91 20.0567C192.242 20.0567 194.447 19.4901 196.526 18.357C197.266 17.949 198.154 17.2918 199.194 16.3853ZM218.628 0C222.692 0 225.903 1.08782 228.258 3.26346C230.753 5.55241 232 8.50993 232 12.136C232 14.3569 231.399 16.4306 230.199 18.357C227.866 22.119 224.021 24 218.663 24C214.644 24 211.457 22.9122 209.101 20.7365C207.854 19.5581 206.896 18.153 206.226 16.5213C205.649 15.0935 205.36 13.5864 205.36 12C205.36 9.6657 205.96 7.53538 207.161 5.60907C209.402 1.93768 213.224 0.0679893 218.628 0ZM218.663 3.90936C216.33 3.90936 214.39 4.56658 212.843 5.88103C210.995 7.44474 210.072 9.48441 210.072 12C210.072 14.5156 210.995 16.5439 212.843 18.085C214.39 19.3995 216.342 20.0567 218.697 20.0567C221.03 20.0567 222.97 19.3995 224.517 18.085C225.441 17.3145 226.145 16.3626 226.63 15.2295C227.069 14.2096 227.288 13.1671 227.288 12.102C227.288 9.47313 226.365 7.39942 224.517 5.88103C222.946 4.58924 220.995 3.93202 218.663 3.90936Z" fill="black"/>
</svg>
