<svg width="32" height="32" viewBox="0 0 32 32" fill="none" xmlns="http://www.w3.org/2000/svg">
<g clip-path="url(#clip0_73_7074)">
<path d="M31.2913 21.3747H23.0859M27.1895 17.2729V25.4783M11.7189 21.7645C10.6633 23.1854 9.24066 25.4102 8.10117 26.7734C6.76243 28.376 5.1231 29.5033 3.70048 31.0342C3.0783 31.7053 2.25339 31.8574 1.56305 31.4694C0.863976 31.0762 0.598326 30.4418 0.74688 29.6815C0.808049 29.3564 0.998548 29.0052 1.23798 28.7797C4.31392 26.2595 5.97073 24.8946 7.83202 21.1161C7.92465 20.9308 8.73907 19.0363 8.99249 18.2289M21.4972 3.20575C21.4972 4.79964 20.2039 6.09294 18.61 6.09294C17.0161 6.09294 15.7246 4.79964 15.7246 3.20575C15.7246 1.61186 17.0161 0.320312 18.61 0.320312C20.2039 0.320312 21.4972 1.61186 21.4972 3.20575ZM15.1321 24.4751C14.2163 23.6799 13.353 22.9372 12.4966 22.1874C11.8412 21.6159 11.1823 21.0479 10.5427 20.459C8.6814 18.748 8.7216 17.4826 9.58146 15.7612C10.3819 14.1603 11.0181 12.4773 11.7241 10.8309C11.7416 10.7872 11.7189 10.7278 11.7136 10.6334C10.658 10.6422 9.69506 10.7173 9.19872 11.911C8.93132 12.5559 8.49614 13.1344 8.09592 13.7181C7.54016 14.529 6.66456 14.7632 5.98296 14.3263C5.28039 13.8772 5.1633 13.1798 5.67537 12.25C6.31677 11.0843 6.98789 9.93261 7.63977 8.77215C8.02776 8.08356 8.60625 7.69731 9.39096 7.58896C11.0041 7.36875 12.6137 7.08213 14.2338 6.90736C15.5096 6.77104 16.7557 7.07164 17.8061 7.79693C19.0749 8.67078 20.2546 9.67745 21.5392 10.6806C22.205 9.73512 22.9181 8.71971 23.6329 7.70431C24.2551 6.82172 25.0485 6.57005 25.7703 7.0262C26.5288 7.50507 26.6949 8.39814 26.0989 9.32092C25.1289 10.8274 24.1205 12.313 23.0894 13.7793C22.4986 14.6182 21.8013 14.7423 20.882 14.2337C19.8369 13.6569 18.8093 13.0505 17.6715 12.3969C16.4831 14.3945 15.3121 16.3676 14.0888 18.4246C15.2789 19.6043 16.4569 20.7648 17.6261 21.9305C18.8967 23.1993 19.0452 24.2689 18.1714 25.8051C17.2696 27.3851 16.373 28.9702 15.4607 30.5466C14.849 31.6075 13.9018 31.9518 13.0209 31.4607C12.1086 30.9503 11.9339 29.9349 12.5718 28.8444C13.4072 27.4165 14.246 25.9869 15.1321 24.4751Z" stroke="white" stroke-width="1.12175" stroke-miterlimit="10" stroke-linecap="round" stroke-linejoin="round"/>
</g>
<defs>
<clipPath id="clip0_73_7074">
<rect width="32" height="32" fill="white"/>
</clipPath>
</defs>
</svg>
