<svg width="40" height="40" viewBox="0 0 40 40" fill="none" xmlns="http://www.w3.org/2000/svg">
<rect width="40" height="40" rx="8" fill="#1E1E1E"/>
<path d="M28.9911 24.5924C28.8316 25.8096 28.2356 26.9275 27.3138 27.7382C26.392 28.5489 25.2071 28.9973 23.9795 29C16.8228 29 11 23.1772 11 16.0205C11.0027 14.7929 11.4511 13.608 12.2618 12.6862C13.0726 11.7644 14.1904 11.1684 15.4076 11.009C15.7179 10.9745 16.0311 11.0399 16.3018 11.1955C16.5724 11.351 16.7865 11.5888 16.9129 11.8743L18.7246 16.1016C18.8186 16.321 18.8563 16.5605 18.8342 16.7981C18.8122 17.0358 18.7311 17.2642 18.5984 17.4627L17.1022 19.7521C17.7797 21.1271 18.8961 22.2372 20.2749 22.9068L22.5373 21.4016C22.7355 21.268 22.9645 21.1871 23.2027 21.1666C23.4408 21.1461 23.6803 21.1866 23.8984 21.2844L28.1257 23.0871C28.4112 23.2135 28.649 23.4276 28.8045 23.6982C28.9601 23.9689 29.0255 24.2821 28.9911 24.5924Z" fill="white" stroke="#1E1E1E"/>
</svg>
