<svg width="40" height="40" viewBox="0 0 40 40" fill="none" xmlns="http://www.w3.org/2000/svg">
<path d="M11.283 5.63867H7.87891C6.93109 5.63867 6.16016 6.40992 6.16016 7.35742V10.7615C6.16016 11.709 6.93109 12.4802 7.87891 12.4802H11.283C12.2308 12.4802 13.0017 11.709 13.0017 10.7615V7.35742C13.0017 6.40992 12.2308 5.63867 11.283 5.63867ZM12.0642 10.7615C12.0642 11.1924 11.7136 11.5427 11.283 11.5427H7.87891C7.44828 11.5427 7.09766 11.1924 7.09766 10.7615V7.35742C7.09766 6.92648 7.44828 6.57617 7.87891 6.57617H11.283C11.7136 6.57617 12.0642 6.92648 12.0642 7.35742V10.7615Z" fill="white"/>
<path d="M11.283 27.5195H7.87891C6.93109 27.5195 6.16016 28.2908 6.16016 29.2383V32.6423C6.16016 33.5898 6.93109 34.3611 7.87891 34.3611H11.283C12.2308 34.3611 13.0017 33.5898 13.0017 32.6423V29.2383C13.0017 28.2905 12.2308 27.5195 11.283 27.5195ZM12.0642 32.642C12.0642 33.073 11.7136 33.4233 11.283 33.4233H7.87891C7.44828 33.4233 7.09766 33.073 7.09766 32.642V29.2383C7.09766 28.8073 7.44828 28.457 7.87891 28.457H11.283C11.7136 28.457 12.0642 28.8073 12.0642 29.2383V32.642Z" fill="white"/>
<path d="M11.283 16.5791H7.87891C6.93109 16.5791 6.16016 17.3504 6.16016 18.2979V21.7019C6.16016 22.6494 6.93109 23.4207 7.87891 23.4207H11.283C12.2308 23.4207 13.0017 22.6494 13.0017 21.7019V18.2979C13.0017 17.35 12.2308 16.5791 11.283 16.5791ZM12.0642 21.7016C12.0642 22.1325 11.7136 22.4829 11.283 22.4829H7.87891C7.44828 22.4829 7.09766 22.1325 7.09766 21.7016V18.2979C7.09766 17.8669 7.44828 17.5166 7.87891 17.5166H11.283C11.7136 17.5166 12.0642 17.8669 12.0642 18.2979V21.7016Z" fill="white"/>
<path d="M16.3154 6.57617H31.857C32.1161 6.57617 32.3257 6.36617 32.3257 6.10742C32.3257 5.84867 32.1161 5.63867 31.857 5.63867H16.3154C16.0564 5.63867 15.8467 5.84867 15.8467 6.10742C15.8467 6.36617 16.0567 6.57617 16.3154 6.57617Z" fill="white"/>
<path d="M16.3154 12.4805H33.3711C33.6301 12.4805 33.8398 12.2705 33.8398 12.0117C33.8398 11.753 33.6301 11.543 33.3711 11.543H16.3154C16.0564 11.543 15.8467 11.753 15.8467 12.0117C15.8467 12.2705 16.0567 12.4805 16.3154 12.4805Z" fill="white"/>
<path d="M16.3154 28.457H31.857C32.1161 28.457 32.3257 28.247 32.3257 27.9883C32.3257 27.7295 32.1161 27.5195 31.857 27.5195H16.3154C16.0564 27.5195 15.8467 27.7295 15.8467 27.9883C15.8467 28.247 16.0567 28.457 16.3154 28.457Z" fill="white"/>
<path d="M33.3711 33.4229H16.3154C16.0564 33.4229 15.8467 33.6329 15.8467 33.8916C15.8467 34.1504 16.0564 34.3604 16.3154 34.3604H33.3711C33.6301 34.3604 33.8398 34.1504 33.8398 33.8916C33.8398 33.6329 33.6301 33.4229 33.3711 33.4229Z" fill="white"/>
<path d="M16.3154 17.5166H31.857C32.1161 17.5166 32.3257 17.3066 32.3257 17.0479C32.3257 16.7891 32.1161 16.5791 31.857 16.5791H16.3154C16.0564 16.5791 15.8467 16.7891 15.8467 17.0479C15.8467 17.3066 16.0567 17.5166 16.3154 17.5166Z" fill="white"/>
<path d="M33.3711 22.4824H16.3154C16.0564 22.4824 15.8467 22.6924 15.8467 22.9512C15.8467 23.2099 16.0564 23.4199 16.3154 23.4199H33.3711C33.6301 23.4199 33.8398 23.2099 33.8398 22.9512C33.8398 22.6924 33.6301 22.4824 33.3711 22.4824Z" fill="white"/>
</svg>
