<svg width="40" height="40" viewBox="0 0 40 40" fill="none" xmlns="http://www.w3.org/2000/svg">
<path fill-rule="evenodd" clip-rule="evenodd" d="M19.6299 28.2713L10.5324 34.8806L14.0074 24.1862C14.0911 23.9287 13.9992 23.6462 13.7805 23.4875L4.68487 16.875H15.9305C16.203 16.875 16.4436 16.6988 16.5261 16.4394L19.9974 5.5025L23.4736 16.4394C23.5561 16.6988 23.7967 16.875 24.0692 16.875H37.238C37.583 16.875 37.863 16.595 37.863 16.25C37.863 15.905 37.583 15.625 37.238 15.625H24.5261L20.593 3.24813C20.5105 2.98875 20.2692 2.8125 19.9974 2.8125C19.7249 2.8125 19.4836 2.98875 19.4017 3.24813L15.473 15.625H2.76174C2.49112 15.625 2.25112 15.7994 2.16737 16.0569C2.08362 16.3144 2.17549 16.5962 2.39424 16.7556L12.678 24.2312L8.74924 36.3238C8.66549 36.5813 8.75737 36.8637 8.97612 37.0225C9.19549 37.1819 9.49174 37.1819 9.71112 37.0225L20.3649 29.2825C20.6436 29.0794 20.7055 28.6881 20.503 28.4094C20.2999 28.13 19.9092 28.0681 19.6299 28.2713ZM24.0199 30L37.1886 29.9756C37.5336 29.975 37.813 29.695 37.8124 29.35C37.8117 29.005 37.5311 28.725 37.1861 28.7256L24.0174 28.75C23.673 28.7506 23.393 29.0313 23.3936 29.3763C23.3942 29.7213 23.6749 30.0006 24.0199 30ZM24.0705 25.625L37.2386 25.6006C37.5836 25.6 37.8636 25.32 37.863 24.975C37.8624 24.63 37.5817 24.35 37.2367 24.3506L24.068 24.375C23.723 24.3756 23.4436 24.6563 23.4442 25.0013C23.4449 25.3463 23.7255 25.6256 24.0705 25.625ZM24.0199 21.25L37.1886 21.2256C37.5336 21.225 37.813 20.945 37.8124 20.6C37.8117 20.255 37.5311 19.975 37.1861 19.9756L24.0174 20C23.673 20.0006 23.393 20.2813 23.3936 20.6263C23.3942 20.9713 23.6749 21.2506 24.0199 21.25Z" fill="black"/>
</svg>
